<svg width="38" height="38" viewBox="0 0 38 38" fill="none" xmlns="http://www.w3.org/2000/svg">
<g clip-path="url(#clip0_2_452)">
<path d="M17.1804 28.0683H20.8097V20.8097H28.0683V17.1804H20.8097V9.92181H17.1804V17.1804H9.92182V20.8097H17.1804V28.0683ZM18.9951 37.1416C16.4848 37.1416 14.1258 36.665 11.9179 35.7117C9.71011 34.7596 7.7896 33.4669 6.15642 31.8337C4.52323 30.2006 3.23059 28.28 2.2785 26.0722C1.32521 23.8644 0.848557 21.5053 0.848557 18.9951C0.848557 16.4848 1.32521 14.1258 2.2785 11.9179C3.23059 9.7101 4.52323 7.7896 6.15642 6.15641C7.7896 4.52322 9.71011 3.22998 11.9179 2.27668C14.1258 1.32459 16.4848 0.848549 18.9951 0.848549C21.5054 0.848549 23.8644 1.32459 26.0722 2.27668C28.2801 3.22998 30.2006 4.52322 31.8338 6.15641C33.4669 7.7896 34.7596 9.7101 35.7117 11.9179C36.665 14.1258 37.1416 16.4848 37.1416 18.9951C37.1416 21.5053 36.665 23.8644 35.7117 26.0722C34.7596 28.28 33.4669 30.2006 31.8338 31.8337C30.2006 33.4669 28.2801 34.7596 26.0722 35.7117C23.8644 36.665 21.5054 37.1416 18.9951 37.1416Z" fill="#FF9A3D"/>
</g>
<defs>
<clipPath id="clip0_2_452">
<rect width="37.33" height="37.33" fill="white" transform="translate(0.330078 0.330078)"/>
</clipPath>
</defs>
</svg>
