<svg width="37" height="38" viewBox="0 0 37 38" fill="none" xmlns="http://www.w3.org/2000/svg">
<g clip-path="url(#clip0_2_440)">
<path d="M27.9287 1.88972C28.4177 1.39525 28.9983 1.00302 29.6372 0.735415C30.2761 0.467811 30.9609 0.330078 31.6525 0.330078C32.3441 0.330078 33.0289 0.467811 33.6678 0.735415C34.3068 1.00302 34.8873 1.39525 35.3763 1.88972C35.8654 2.38418 36.2533 2.9712 36.5179 3.61725C36.7826 4.2633 36.9188 4.95574 36.9188 5.65502C36.9188 6.3543 36.7826 7.04673 36.5179 7.69278C36.2533 8.33884 35.8654 8.92585 35.3763 9.42032L10.2405 34.8361L0 37.6601L2.79287 27.3055L27.9287 1.88972Z" stroke="#0B0606" stroke-linecap="round" stroke-linejoin="round"/>
</g>
<defs>
<clipPath id="clip0_2_440">
<rect width="37" height="38" fill="white"/>
</clipPath>
</defs>
</svg>
