<svg width="37" height="37" viewBox="0 0 37 37" fill="none" xmlns="http://www.w3.org/2000/svg">
<path d="M2.01611 30.1933C1.44488 30.1933 0.966389 29.9998 0.58064 29.6127C0.193547 29.2269 0 28.7485 0 28.1772C0 27.606 0.193547 27.1275 0.58064 26.7418C0.966389 26.3547 1.44488 26.1611 2.01611 26.1611H34.2739C34.8451 26.1611 35.3236 26.3547 35.7094 26.7418C36.0965 27.1275 36.29 27.606 36.29 28.1772C36.29 28.7485 36.0965 29.2269 35.7094 29.6127C35.3236 29.9998 34.8451 30.1933 34.2739 30.1933H2.01611ZM2.01611 20.1128C1.44488 20.1128 0.966389 19.9192 0.58064 19.5321C0.193547 19.1464 0 18.6679 0 18.0967C0 17.5254 0.193547 17.0463 0.58064 16.6592C0.966389 16.2734 1.44488 16.0806 2.01611 16.0806H34.2739C34.8451 16.0806 35.3236 16.2734 35.7094 16.6592C36.0965 17.0463 36.29 17.5254 36.29 18.0967C36.29 18.6679 36.0965 19.1464 35.7094 19.5321C35.3236 19.9192 34.8451 20.1128 34.2739 20.1128H2.01611ZM2.01611 10.0322C1.44488 10.0322 0.966389 9.83935 0.58064 9.4536C0.193547 9.0665 0 8.58734 0 8.01611C0 7.44488 0.193547 6.96572 0.58064 6.57862C0.966389 6.19287 1.44488 6 2.01611 6H34.2739C34.8451 6 35.3236 6.19287 35.7094 6.57862C36.0965 6.96572 36.29 7.44488 36.29 8.01611C36.29 8.58734 36.0965 9.0665 35.7094 9.4536C35.3236 9.83935 34.8451 10.0322 34.2739 10.0322H2.01611Z" fill="#0B0606"/>
</svg>
