<svg width="39" height="38" viewBox="0 0 39 38" fill="none" xmlns="http://www.w3.org/2000/svg">
<g clip-path="url(#clip0_2_447)">
<path d="M1.07142 37.6663V34.1663H8.65475L7.77975 33.4663C5.29086 31.483 3.48253 29.3247 2.35475 26.9913C1.22697 24.658 0.663086 22.0525 0.663086 19.1747C0.663086 15.0525 1.87836 11.3483 4.30892 8.06217C6.73947 4.77606 9.93809 2.51079 13.9048 1.26634V4.88301C10.9881 6.01078 8.63531 7.88717 6.84642 10.5122C5.05753 13.1372 4.16309 16.0247 4.16309 19.1747C4.16309 21.6247 4.62003 23.7538 5.53392 25.5622C6.44781 27.3705 7.68253 28.9358 9.23809 30.258L10.9881 31.483V24.2497H14.4881V37.6663H1.07142ZM24.8131 36.7913V33.1163C27.7686 31.9886 30.1214 30.1122 31.8714 27.4872C33.6214 24.8622 34.4964 21.9747 34.4964 18.8247C34.4964 16.958 34.0395 15.0622 33.1256 13.1372C32.2117 11.2122 31.0159 9.51079 29.5381 8.03301L27.8464 6.51634V13.7497H24.3464V0.333008H37.7631V3.83301H30.1214L30.9964 4.64967C33.3298 6.82745 35.0798 9.16079 36.2464 11.6497C37.4131 14.1386 37.9964 16.5302 37.9964 18.8247C37.9964 22.9469 36.7909 26.6608 34.3798 29.9663C31.9686 33.2719 28.7798 35.5469 24.8131 36.7913V36.7913Z" fill="#FF9A3D"/>
</g>
<defs>
<clipPath id="clip0_2_447">
<rect x="0.330078" width="38" height="38" rx="4" fill="white"/>
</clipPath>
</defs>
</svg>
