<svg width="37" height="37" viewBox="0 0 37 37" fill="none" xmlns="http://www.w3.org/2000/svg">
<g clip-path="url(#clip0_10_538)">
<path fill-rule="evenodd" clip-rule="evenodd" d="M28.0328 25.263C33.0893 18.7278 32.204 9.38646 26.01 3.91889C19.8161 -1.54868 10.4432 -1.2624 4.59407 4.57302C-1.2591 10.4214 -1.55636 19.8166 3.91537 26.0238C9.38711 32.2309 18.74 33.1083 25.2693 28.027L25.3541 28.1157L33.6563 36.4259C34.4212 37.1913 35.6614 37.1914 36.4263 36.4259C37.1912 35.6605 37.1912 34.4195 36.4263 33.6541L28.1215 25.3466C28.0927 25.3183 28.0631 25.2909 28.0328 25.2643V25.263ZM23.9698 7.34352C28.5562 11.9318 28.5562 19.3718 23.9704 23.9606C19.3845 28.5494 11.9493 28.5494 7.36347 23.9606C2.7773 19.3721 2.77731 11.9321 7.36317 7.34322C11.949 2.75438 19.3842 2.75437 23.9701 7.34322L23.9698 7.34352Z" fill="#0B0606"/>
</g>
<defs>
<clipPath id="clip0_10_538">
<rect width="37" height="37" fill="white"/>
</clipPath>
</defs>
</svg>
